<mxfile host="app.diagrams.net" modified="2023-10-03T08:20:41.483Z" agent="Mozilla/5.0 (X11; Linux x86_64) AppleWebKit/537.36 (KHTML, like Gecko) Chrome/117.0.0.0 Safari/537.36" etag="WJlsYw5syirNE9sE86T4" version="22.0.0" type="github">
  <diagram name="Страница — 1" id="HEkqbumlcw84zHXEJl8H">
    <mxGraphModel dx="1995" dy="1043" grid="0" gridSize="10" guides="1" tooltips="1" connect="1" arrows="1" fold="1" page="0" pageScale="1" pageWidth="827" pageHeight="1169" math="0" shadow="0">
      <root>
        <mxCell id="0" />
        <mxCell id="1" parent="0" />
        <mxCell id="XJhYYw2cQEGLfJjtBbyS-1" value="Прийом співробітника на роботу" style="swimlane;horizontal=0;whiteSpace=wrap;html=1;" parent="1" vertex="1">
          <mxGeometry x="-520" y="-185" width="2838" height="912" as="geometry" />
        </mxCell>
        <mxCell id="XJhYYw2cQEGLfJjtBbyS-4" value="Кандидат на посаду" style="swimlane;horizontal=0;whiteSpace=wrap;html=1;" parent="1" vertex="1">
          <mxGeometry x="-496" y="254" width="2814" height="473" as="geometry" />
        </mxCell>
        <mxCell id="1G5EOY4C8jy5DTyf7jeD-6" style="edgeStyle=orthogonalEdgeStyle;rounded=0;orthogonalLoop=1;jettySize=auto;html=1;exitX=1;exitY=0.5;exitDx=0;exitDy=0;exitPerimeter=0;entryX=0;entryY=0.5;entryDx=0;entryDy=0;" edge="1" parent="XJhYYw2cQEGLfJjtBbyS-4" source="XJhYYw2cQEGLfJjtBbyS-43" target="1G5EOY4C8jy5DTyf7jeD-4">
          <mxGeometry relative="1" as="geometry" />
        </mxCell>
        <mxCell id="XJhYYw2cQEGLfJjtBbyS-43" value="" style="points=[[0.145,0.145,0],[0.5,0,0],[0.855,0.145,0],[1,0.5,0],[0.855,0.855,0],[0.5,1,0],[0.145,0.855,0],[0,0.5,0]];shape=mxgraph.bpmn.event;html=1;verticalLabelPosition=bottom;labelBackgroundColor=#ffffff;verticalAlign=top;align=center;perimeter=ellipsePerimeter;outlineConnect=0;aspect=fixed;outline=standard;symbol=general;" parent="XJhYYw2cQEGLfJjtBbyS-4" vertex="1">
          <mxGeometry x="56" y="211.5" width="50" height="50" as="geometry" />
        </mxCell>
        <mxCell id="1G5EOY4C8jy5DTyf7jeD-7" style="edgeStyle=orthogonalEdgeStyle;rounded=0;orthogonalLoop=1;jettySize=auto;html=1;exitX=1;exitY=0.5;exitDx=0;exitDy=0;entryX=0;entryY=0.5;entryDx=0;entryDy=0;" edge="1" parent="XJhYYw2cQEGLfJjtBbyS-4" source="1G5EOY4C8jy5DTyf7jeD-4" target="1G5EOY4C8jy5DTyf7jeD-5">
          <mxGeometry relative="1" as="geometry" />
        </mxCell>
        <mxCell id="1G5EOY4C8jy5DTyf7jeD-4" value="Створити резюме" style="rounded=1;whiteSpace=wrap;html=1;" vertex="1" parent="XJhYYw2cQEGLfJjtBbyS-4">
          <mxGeometry x="133" y="207" width="120" height="60" as="geometry" />
        </mxCell>
        <mxCell id="1G5EOY4C8jy5DTyf7jeD-5" value="Надіслати резюме" style="rounded=1;whiteSpace=wrap;html=1;" vertex="1" parent="XJhYYw2cQEGLfJjtBbyS-4">
          <mxGeometry x="287" y="206.5" width="120" height="60" as="geometry" />
        </mxCell>
        <mxCell id="1G5EOY4C8jy5DTyf7jeD-22" style="edgeStyle=orthogonalEdgeStyle;rounded=0;orthogonalLoop=1;jettySize=auto;html=1;exitX=1;exitY=0.5;exitDx=0;exitDy=0;exitPerimeter=0;entryX=0;entryY=0.5;entryDx=0;entryDy=0;" edge="1" parent="XJhYYw2cQEGLfJjtBbyS-4" source="1G5EOY4C8jy5DTyf7jeD-8" target="1G5EOY4C8jy5DTyf7jeD-21">
          <mxGeometry relative="1" as="geometry" />
        </mxCell>
        <mxCell id="1G5EOY4C8jy5DTyf7jeD-8" value="" style="points=[[0.25,0.25,0],[0.5,0,0],[0.75,0.25,0],[1,0.5,0],[0.75,0.75,0],[0.5,1,0],[0.25,0.75,0],[0,0.5,0]];shape=mxgraph.bpmn.gateway2;html=1;verticalLabelPosition=bottom;labelBackgroundColor=#ffffff;verticalAlign=top;align=center;perimeter=rhombusPerimeter;outlineConnect=0;outline=none;symbol=none;gwType=exclusive;" vertex="1" parent="XJhYYw2cQEGLfJjtBbyS-4">
          <mxGeometry x="665" y="212" width="50" height="50" as="geometry" />
        </mxCell>
        <mxCell id="1G5EOY4C8jy5DTyf7jeD-10" value="" style="points=[[0.145,0.145,0],[0.5,0,0],[0.855,0.145,0],[1,0.5,0],[0.855,0.855,0],[0.5,1,0],[0.145,0.855,0],[0,0.5,0]];shape=mxgraph.bpmn.event;html=1;verticalLabelPosition=bottom;labelBackgroundColor=#ffffff;verticalAlign=top;align=center;perimeter=ellipsePerimeter;outlineConnect=0;aspect=fixed;outline=end;symbol=terminate2;" vertex="1" parent="XJhYYw2cQEGLfJjtBbyS-4">
          <mxGeometry x="665" y="358" width="50" height="50" as="geometry" />
        </mxCell>
        <mxCell id="1G5EOY4C8jy5DTyf7jeD-11" style="edgeStyle=orthogonalEdgeStyle;rounded=0;orthogonalLoop=1;jettySize=auto;html=1;exitX=0.5;exitY=1;exitDx=0;exitDy=0;exitPerimeter=0;entryX=0.5;entryY=0;entryDx=0;entryDy=0;entryPerimeter=0;" edge="1" parent="XJhYYw2cQEGLfJjtBbyS-4" source="1G5EOY4C8jy5DTyf7jeD-8" target="1G5EOY4C8jy5DTyf7jeD-10">
          <mxGeometry relative="1" as="geometry" />
        </mxCell>
        <mxCell id="1G5EOY4C8jy5DTyf7jeD-16" value="" style="shape=mxgraph.bpmn.data;labelPosition=center;verticalLabelPosition=bottom;align=center;verticalAlign=top;size=15;html=1;" vertex="1" parent="XJhYYw2cQEGLfJjtBbyS-4">
          <mxGeometry x="243" y="16" width="67" height="91" as="geometry" />
        </mxCell>
        <mxCell id="1G5EOY4C8jy5DTyf7jeD-30" style="edgeStyle=orthogonalEdgeStyle;rounded=0;orthogonalLoop=1;jettySize=auto;html=1;exitX=1;exitY=0.5;exitDx=0;exitDy=0;entryX=0;entryY=0.5;entryDx=0;entryDy=0;" edge="1" parent="XJhYYw2cQEGLfJjtBbyS-4" source="1G5EOY4C8jy5DTyf7jeD-21" target="1G5EOY4C8jy5DTyf7jeD-29">
          <mxGeometry relative="1" as="geometry" />
        </mxCell>
        <mxCell id="1G5EOY4C8jy5DTyf7jeD-21" value="Прийти на співбесіду" style="rounded=1;whiteSpace=wrap;html=1;" vertex="1" parent="XJhYYw2cQEGLfJjtBbyS-4">
          <mxGeometry x="776" y="207" width="120" height="60" as="geometry" />
        </mxCell>
        <mxCell id="1G5EOY4C8jy5DTyf7jeD-29" value="Виконати тестове завдання" style="rounded=1;whiteSpace=wrap;html=1;" vertex="1" parent="XJhYYw2cQEGLfJjtBbyS-4">
          <mxGeometry x="961" y="206.5" width="120" height="60" as="geometry" />
        </mxCell>
        <mxCell id="1G5EOY4C8jy5DTyf7jeD-45" value="" style="points=[[0.145,0.145,0],[0.5,0,0],[0.855,0.145,0],[1,0.5,0],[0.855,0.855,0],[0.5,1,0],[0.145,0.855,0],[0,0.5,0]];shape=mxgraph.bpmn.event;html=1;verticalLabelPosition=bottom;labelBackgroundColor=#ffffff;verticalAlign=top;align=center;perimeter=ellipsePerimeter;outlineConnect=0;aspect=fixed;outline=catching;symbol=message;" vertex="1" parent="XJhYYw2cQEGLfJjtBbyS-4">
          <mxGeometry x="511" y="212" width="50" height="50" as="geometry" />
        </mxCell>
        <mxCell id="1G5EOY4C8jy5DTyf7jeD-47" style="edgeStyle=orthogonalEdgeStyle;rounded=0;orthogonalLoop=1;jettySize=auto;html=1;exitX=1;exitY=0.5;exitDx=0;exitDy=0;entryX=0;entryY=0.5;entryDx=0;entryDy=0;entryPerimeter=0;" edge="1" parent="XJhYYw2cQEGLfJjtBbyS-4" source="1G5EOY4C8jy5DTyf7jeD-5" target="1G5EOY4C8jy5DTyf7jeD-45">
          <mxGeometry relative="1" as="geometry" />
        </mxCell>
        <mxCell id="1G5EOY4C8jy5DTyf7jeD-48" style="edgeStyle=orthogonalEdgeStyle;rounded=0;orthogonalLoop=1;jettySize=auto;html=1;exitX=1;exitY=0.5;exitDx=0;exitDy=0;exitPerimeter=0;entryX=0;entryY=0.5;entryDx=0;entryDy=0;entryPerimeter=0;" edge="1" parent="XJhYYw2cQEGLfJjtBbyS-4" source="1G5EOY4C8jy5DTyf7jeD-45" target="1G5EOY4C8jy5DTyf7jeD-8">
          <mxGeometry relative="1" as="geometry" />
        </mxCell>
        <mxCell id="1G5EOY4C8jy5DTyf7jeD-51" value="" style="endArrow=none;dashed=1;html=1;rounded=0;entryX=0.25;entryY=1;entryDx=0;entryDy=0;" edge="1" parent="XJhYYw2cQEGLfJjtBbyS-4" target="1G5EOY4C8jy5DTyf7jeD-19">
          <mxGeometry width="50" height="50" relative="1" as="geometry">
            <mxPoint x="571" y="106" as="sourcePoint" />
            <mxPoint x="763" y="66" as="targetPoint" />
            <Array as="points">
              <mxPoint x="736" y="106" />
            </Array>
          </mxGeometry>
        </mxCell>
        <mxCell id="1G5EOY4C8jy5DTyf7jeD-55" value="" style="points=[[0.145,0.145,0],[0.5,0,0],[0.855,0.145,0],[1,0.5,0],[0.855,0.855,0],[0.5,1,0],[0.145,0.855,0],[0,0.5,0]];shape=mxgraph.bpmn.event;html=1;verticalLabelPosition=bottom;labelBackgroundColor=#ffffff;verticalAlign=top;align=center;perimeter=ellipsePerimeter;outlineConnect=0;aspect=fixed;outline=catching;symbol=message;" vertex="1" parent="XJhYYw2cQEGLfJjtBbyS-4">
          <mxGeometry x="1262" y="212" width="50" height="50" as="geometry" />
        </mxCell>
        <mxCell id="1G5EOY4C8jy5DTyf7jeD-58" style="edgeStyle=orthogonalEdgeStyle;rounded=0;orthogonalLoop=1;jettySize=auto;html=1;exitX=1;exitY=0.5;exitDx=0;exitDy=0;entryX=0;entryY=0.5;entryDx=0;entryDy=0;entryPerimeter=0;" edge="1" parent="XJhYYw2cQEGLfJjtBbyS-4" source="1G5EOY4C8jy5DTyf7jeD-29" target="1G5EOY4C8jy5DTyf7jeD-55">
          <mxGeometry relative="1" as="geometry" />
        </mxCell>
        <mxCell id="1G5EOY4C8jy5DTyf7jeD-66" style="edgeStyle=orthogonalEdgeStyle;rounded=0;orthogonalLoop=1;jettySize=auto;html=1;exitX=1;exitY=0.5;exitDx=0;exitDy=0;exitPerimeter=0;entryX=0;entryY=0.5;entryDx=0;entryDy=0;" edge="1" parent="XJhYYw2cQEGLfJjtBbyS-4" source="1G5EOY4C8jy5DTyf7jeD-59" target="1G5EOY4C8jy5DTyf7jeD-65">
          <mxGeometry relative="1" as="geometry" />
        </mxCell>
        <mxCell id="1G5EOY4C8jy5DTyf7jeD-59" value="" style="points=[[0.25,0.25,0],[0.5,0,0],[0.75,0.25,0],[1,0.5,0],[0.75,0.75,0],[0.5,1,0],[0.25,0.75,0],[0,0.5,0]];shape=mxgraph.bpmn.gateway2;html=1;verticalLabelPosition=bottom;labelBackgroundColor=#ffffff;verticalAlign=top;align=center;perimeter=rhombusPerimeter;outlineConnect=0;outline=none;symbol=none;gwType=exclusive;" vertex="1" parent="XJhYYw2cQEGLfJjtBbyS-4">
          <mxGeometry x="1438" y="212" width="50" height="50" as="geometry" />
        </mxCell>
        <mxCell id="1G5EOY4C8jy5DTyf7jeD-62" style="edgeStyle=orthogonalEdgeStyle;rounded=0;orthogonalLoop=1;jettySize=auto;html=1;exitX=1;exitY=0.5;exitDx=0;exitDy=0;exitPerimeter=0;entryX=0;entryY=0.5;entryDx=0;entryDy=0;entryPerimeter=0;" edge="1" parent="XJhYYw2cQEGLfJjtBbyS-4" source="1G5EOY4C8jy5DTyf7jeD-55" target="1G5EOY4C8jy5DTyf7jeD-59">
          <mxGeometry relative="1" as="geometry" />
        </mxCell>
        <mxCell id="1G5EOY4C8jy5DTyf7jeD-63" value="" style="points=[[0.145,0.145,0],[0.5,0,0],[0.855,0.145,0],[1,0.5,0],[0.855,0.855,0],[0.5,1,0],[0.145,0.855,0],[0,0.5,0]];shape=mxgraph.bpmn.event;html=1;verticalLabelPosition=bottom;labelBackgroundColor=#ffffff;verticalAlign=top;align=center;perimeter=ellipsePerimeter;outlineConnect=0;aspect=fixed;outline=end;symbol=terminate2;" vertex="1" parent="XJhYYw2cQEGLfJjtBbyS-4">
          <mxGeometry x="1438" y="358" width="50" height="50" as="geometry" />
        </mxCell>
        <mxCell id="1G5EOY4C8jy5DTyf7jeD-64" style="edgeStyle=orthogonalEdgeStyle;rounded=0;orthogonalLoop=1;jettySize=auto;html=1;exitX=0.5;exitY=1;exitDx=0;exitDy=0;exitPerimeter=0;entryX=0.5;entryY=0;entryDx=0;entryDy=0;entryPerimeter=0;" edge="1" parent="XJhYYw2cQEGLfJjtBbyS-4" source="1G5EOY4C8jy5DTyf7jeD-59" target="1G5EOY4C8jy5DTyf7jeD-63">
          <mxGeometry relative="1" as="geometry" />
        </mxCell>
        <mxCell id="1G5EOY4C8jy5DTyf7jeD-65" value="Надіслати документи" style="rounded=1;whiteSpace=wrap;html=1;" vertex="1" parent="XJhYYw2cQEGLfJjtBbyS-4">
          <mxGeometry x="1614" y="207" width="120" height="60" as="geometry" />
        </mxCell>
        <mxCell id="1G5EOY4C8jy5DTyf7jeD-68" value="" style="points=[[0.145,0.145,0],[0.5,0,0],[0.855,0.145,0],[1,0.5,0],[0.855,0.855,0],[0.5,1,0],[0.145,0.855,0],[0,0.5,0]];shape=mxgraph.bpmn.event;html=1;verticalLabelPosition=bottom;labelBackgroundColor=#ffffff;verticalAlign=top;align=center;perimeter=ellipsePerimeter;outlineConnect=0;aspect=fixed;outline=end;symbol=terminate2;" vertex="1" parent="XJhYYw2cQEGLfJjtBbyS-4">
          <mxGeometry x="1860" y="211.5" width="50" height="50" as="geometry" />
        </mxCell>
        <mxCell id="1G5EOY4C8jy5DTyf7jeD-69" style="edgeStyle=orthogonalEdgeStyle;rounded=0;orthogonalLoop=1;jettySize=auto;html=1;exitX=1;exitY=0.5;exitDx=0;exitDy=0;entryX=0;entryY=0.5;entryDx=0;entryDy=0;entryPerimeter=0;" edge="1" parent="XJhYYw2cQEGLfJjtBbyS-4" source="1G5EOY4C8jy5DTyf7jeD-65" target="1G5EOY4C8jy5DTyf7jeD-68">
          <mxGeometry relative="1" as="geometry" />
        </mxCell>
        <mxCell id="1G5EOY4C8jy5DTyf7jeD-70" value="Резюме" style="text;html=1;align=center;verticalAlign=middle;resizable=0;points=[];autosize=1;strokeColor=none;fillColor=none;" vertex="1" parent="XJhYYw2cQEGLfJjtBbyS-4">
          <mxGeometry x="246" y="51" width="61" height="26" as="geometry" />
        </mxCell>
        <mxCell id="1G5EOY4C8jy5DTyf7jeD-71" value="" style="endArrow=none;dashed=1;html=1;dashPattern=1 3;strokeWidth=2;rounded=0;exitX=0.99;exitY=0.828;exitDx=0;exitDy=0;exitPerimeter=0;" edge="1" parent="XJhYYw2cQEGLfJjtBbyS-4" source="1G5EOY4C8jy5DTyf7jeD-16">
          <mxGeometry width="50" height="50" relative="1" as="geometry">
            <mxPoint x="395" y="106" as="sourcePoint" />
            <mxPoint x="345" y="91" as="targetPoint" />
          </mxGeometry>
        </mxCell>
        <mxCell id="1G5EOY4C8jy5DTyf7jeD-75" value="" style="shape=mxgraph.bpmn.data;labelPosition=center;verticalLabelPosition=bottom;align=center;verticalAlign=top;size=15;html=1;" vertex="1" parent="XJhYYw2cQEGLfJjtBbyS-4">
          <mxGeometry x="422" y="12" width="67" height="91" as="geometry" />
        </mxCell>
        <mxCell id="1G5EOY4C8jy5DTyf7jeD-76" value="Лист &lt;br&gt;відмова" style="text;html=1;align=center;verticalAlign=middle;resizable=0;points=[];autosize=1;strokeColor=none;fillColor=none;" vertex="1" parent="XJhYYw2cQEGLfJjtBbyS-4">
          <mxGeometry x="424.5" y="43.5" width="62" height="41" as="geometry" />
        </mxCell>
        <mxCell id="1G5EOY4C8jy5DTyf7jeD-77" value="" style="endArrow=none;dashed=1;html=1;rounded=0;" edge="1" parent="XJhYYw2cQEGLfJjtBbyS-4" source="1G5EOY4C8jy5DTyf7jeD-75">
          <mxGeometry width="50" height="50" relative="1" as="geometry">
            <mxPoint x="486" y="96" as="sourcePoint" />
            <mxPoint x="570" y="55" as="targetPoint" />
          </mxGeometry>
        </mxCell>
        <mxCell id="1G5EOY4C8jy5DTyf7jeD-79" value="" style="shape=mxgraph.bpmn.data;labelPosition=center;verticalLabelPosition=bottom;align=center;verticalAlign=top;size=15;html=1;" vertex="1" parent="XJhYYw2cQEGLfJjtBbyS-4">
          <mxGeometry x="866" y="27" width="67" height="91" as="geometry" />
        </mxCell>
        <mxCell id="1G5EOY4C8jy5DTyf7jeD-80" value="Матеріали&lt;br&gt;завдання" style="text;html=1;align=center;verticalAlign=middle;resizable=0;points=[];autosize=1;strokeColor=none;fillColor=none;" vertex="1" parent="XJhYYw2cQEGLfJjtBbyS-4">
          <mxGeometry x="861.5" y="55" width="76" height="41" as="geometry" />
        </mxCell>
        <mxCell id="1G5EOY4C8jy5DTyf7jeD-81" value="" style="endArrow=none;dashed=1;html=1;rounded=0;" edge="1" parent="XJhYYw2cQEGLfJjtBbyS-4">
          <mxGeometry width="50" height="50" relative="1" as="geometry">
            <mxPoint x="934" y="104" as="sourcePoint" />
            <mxPoint x="991" y="104" as="targetPoint" />
          </mxGeometry>
        </mxCell>
        <mxCell id="1G5EOY4C8jy5DTyf7jeD-82" value="" style="shape=mxgraph.bpmn.data;labelPosition=center;verticalLabelPosition=bottom;align=center;verticalAlign=top;size=15;html=1;" vertex="1" parent="XJhYYw2cQEGLfJjtBbyS-4">
          <mxGeometry x="1096" y="27" width="67" height="91" as="geometry" />
        </mxCell>
        <mxCell id="1G5EOY4C8jy5DTyf7jeD-83" value="Виконане&lt;br&gt;завдання" style="text;html=1;align=center;verticalAlign=middle;resizable=0;points=[];autosize=1;strokeColor=none;fillColor=none;" vertex="1" parent="XJhYYw2cQEGLfJjtBbyS-4">
          <mxGeometry x="1094" y="52" width="71" height="41" as="geometry" />
        </mxCell>
        <mxCell id="1G5EOY4C8jy5DTyf7jeD-84" value="" style="endArrow=none;dashed=1;html=1;rounded=0;" edge="1" parent="XJhYYw2cQEGLfJjtBbyS-4">
          <mxGeometry width="50" height="50" relative="1" as="geometry">
            <mxPoint x="1053" y="101" as="sourcePoint" />
            <mxPoint x="1094" y="101" as="targetPoint" />
          </mxGeometry>
        </mxCell>
        <mxCell id="1G5EOY4C8jy5DTyf7jeD-3" value="Відділ кадрів (HR)" style="swimlane;horizontal=0;whiteSpace=wrap;html=1;" vertex="1" parent="1">
          <mxGeometry x="-496" y="-186" width="2816" height="440" as="geometry" />
        </mxCell>
        <mxCell id="1G5EOY4C8jy5DTyf7jeD-12" value="Перевірити резюме" style="rounded=1;whiteSpace=wrap;html=1;" vertex="1" parent="1G5EOY4C8jy5DTyf7jeD-3">
          <mxGeometry x="396" y="205" width="120" height="60" as="geometry" />
        </mxCell>
        <mxCell id="1G5EOY4C8jy5DTyf7jeD-18" style="edgeStyle=orthogonalEdgeStyle;rounded=0;orthogonalLoop=1;jettySize=auto;html=1;exitX=0.5;exitY=1;exitDx=0;exitDy=0;exitPerimeter=0;entryX=0.5;entryY=0;entryDx=0;entryDy=0;" edge="1" parent="1G5EOY4C8jy5DTyf7jeD-3" source="1G5EOY4C8jy5DTyf7jeD-14">
          <mxGeometry relative="1" as="geometry">
            <mxPoint x="592" y="329" as="targetPoint" />
          </mxGeometry>
        </mxCell>
        <mxCell id="1G5EOY4C8jy5DTyf7jeD-86" value="&lt;font style=&quot;font-size: 14px;&quot;&gt;Ні&lt;/font&gt;" style="edgeLabel;html=1;align=center;verticalAlign=middle;resizable=0;points=[];" vertex="1" connectable="0" parent="1G5EOY4C8jy5DTyf7jeD-18">
          <mxGeometry x="-0.2604" y="-3" relative="1" as="geometry">
            <mxPoint as="offset" />
          </mxGeometry>
        </mxCell>
        <mxCell id="1G5EOY4C8jy5DTyf7jeD-20" style="edgeStyle=orthogonalEdgeStyle;rounded=0;orthogonalLoop=1;jettySize=auto;html=1;exitX=1;exitY=0.5;exitDx=0;exitDy=0;exitPerimeter=0;entryX=0;entryY=0.5;entryDx=0;entryDy=0;" edge="1" parent="1G5EOY4C8jy5DTyf7jeD-3" source="1G5EOY4C8jy5DTyf7jeD-14" target="1G5EOY4C8jy5DTyf7jeD-19">
          <mxGeometry relative="1" as="geometry" />
        </mxCell>
        <mxCell id="1G5EOY4C8jy5DTyf7jeD-87" value="&lt;font style=&quot;font-size: 14px;&quot;&gt;Так&lt;/font&gt;" style="edgeLabel;html=1;align=center;verticalAlign=middle;resizable=0;points=[];" vertex="1" connectable="0" parent="1G5EOY4C8jy5DTyf7jeD-20">
          <mxGeometry x="-0.1795" y="2" relative="1" as="geometry">
            <mxPoint as="offset" />
          </mxGeometry>
        </mxCell>
        <mxCell id="1G5EOY4C8jy5DTyf7jeD-14" value="" style="points=[[0.25,0.25,0],[0.5,0,0],[0.75,0.25,0],[1,0.5,0],[0.75,0.75,0],[0.5,1,0],[0.25,0.75,0],[0,0.5,0]];shape=mxgraph.bpmn.gateway2;html=1;verticalLabelPosition=bottom;labelBackgroundColor=#ffffff;verticalAlign=top;align=center;perimeter=rhombusPerimeter;outlineConnect=0;outline=none;symbol=none;gwType=exclusive;" vertex="1" parent="1G5EOY4C8jy5DTyf7jeD-3">
          <mxGeometry x="567" y="211" width="50" height="50" as="geometry" />
        </mxCell>
        <mxCell id="1G5EOY4C8jy5DTyf7jeD-17" value="Відхилити кандидатуру" style="rounded=1;whiteSpace=wrap;html=1;" vertex="1" parent="1G5EOY4C8jy5DTyf7jeD-3">
          <mxGeometry x="540" y="335" width="120" height="60" as="geometry" />
        </mxCell>
        <mxCell id="1G5EOY4C8jy5DTyf7jeD-19" value="Назначити співбесіду" style="rounded=1;whiteSpace=wrap;html=1;" vertex="1" parent="1G5EOY4C8jy5DTyf7jeD-3">
          <mxGeometry x="708" y="206" width="120" height="60" as="geometry" />
        </mxCell>
        <mxCell id="1G5EOY4C8jy5DTyf7jeD-31" style="edgeStyle=orthogonalEdgeStyle;rounded=0;orthogonalLoop=1;jettySize=auto;html=1;exitX=0.5;exitY=1;exitDx=0;exitDy=0;exitPerimeter=0;entryX=0;entryY=0.5;entryDx=0;entryDy=0;" edge="1" parent="1G5EOY4C8jy5DTyf7jeD-3" source="1G5EOY4C8jy5DTyf7jeD-25" target="1G5EOY4C8jy5DTyf7jeD-28">
          <mxGeometry relative="1" as="geometry" />
        </mxCell>
        <mxCell id="1G5EOY4C8jy5DTyf7jeD-32" style="edgeStyle=orthogonalEdgeStyle;rounded=0;orthogonalLoop=1;jettySize=auto;html=1;exitX=0.5;exitY=0;exitDx=0;exitDy=0;exitPerimeter=0;entryX=0;entryY=0.5;entryDx=0;entryDy=0;" edge="1" parent="1G5EOY4C8jy5DTyf7jeD-3" source="1G5EOY4C8jy5DTyf7jeD-25" target="1G5EOY4C8jy5DTyf7jeD-27">
          <mxGeometry relative="1" as="geometry" />
        </mxCell>
        <mxCell id="1G5EOY4C8jy5DTyf7jeD-25" value="" style="points=[[0.25,0.25,0],[0.5,0,0],[0.75,0.25,0],[1,0.5,0],[0.75,0.75,0],[0.5,1,0],[0.25,0.75,0],[0,0.5,0]];shape=mxgraph.bpmn.gateway2;html=1;verticalLabelPosition=bottom;labelBackgroundColor=#ffffff;verticalAlign=top;align=center;perimeter=rhombusPerimeter;outlineConnect=0;outline=none;symbol=none;gwType=parallel;" vertex="1" parent="1G5EOY4C8jy5DTyf7jeD-3">
          <mxGeometry x="868" y="211" width="50" height="50" as="geometry" />
        </mxCell>
        <mxCell id="1G5EOY4C8jy5DTyf7jeD-26" style="edgeStyle=orthogonalEdgeStyle;rounded=0;orthogonalLoop=1;jettySize=auto;html=1;exitX=1;exitY=0.5;exitDx=0;exitDy=0;entryX=0;entryY=0.5;entryDx=0;entryDy=0;entryPerimeter=0;" edge="1" parent="1G5EOY4C8jy5DTyf7jeD-3" source="1G5EOY4C8jy5DTyf7jeD-19" target="1G5EOY4C8jy5DTyf7jeD-25">
          <mxGeometry relative="1" as="geometry" />
        </mxCell>
        <mxCell id="1G5EOY4C8jy5DTyf7jeD-34" style="edgeStyle=orthogonalEdgeStyle;rounded=0;orthogonalLoop=1;jettySize=auto;html=1;exitX=1;exitY=0.5;exitDx=0;exitDy=0;" edge="1" parent="1G5EOY4C8jy5DTyf7jeD-3" source="1G5EOY4C8jy5DTyf7jeD-27" target="1G5EOY4C8jy5DTyf7jeD-33">
          <mxGeometry relative="1" as="geometry" />
        </mxCell>
        <mxCell id="1G5EOY4C8jy5DTyf7jeD-27" value="Провести співбесіду" style="rounded=1;whiteSpace=wrap;html=1;" vertex="1" parent="1G5EOY4C8jy5DTyf7jeD-3">
          <mxGeometry x="961" y="112" width="120" height="60" as="geometry" />
        </mxCell>
        <mxCell id="1G5EOY4C8jy5DTyf7jeD-28" value="Надіслати тестове завдання" style="rounded=1;whiteSpace=wrap;html=1;" vertex="1" parent="1G5EOY4C8jy5DTyf7jeD-3">
          <mxGeometry x="961" y="298" width="120" height="60" as="geometry" />
        </mxCell>
        <mxCell id="1G5EOY4C8jy5DTyf7jeD-33" value="" style="points=[[0.25,0.25,0],[0.5,0,0],[0.75,0.25,0],[1,0.5,0],[0.75,0.75,0],[0.5,1,0],[0.25,0.75,0],[0,0.5,0]];shape=mxgraph.bpmn.gateway2;html=1;verticalLabelPosition=bottom;labelBackgroundColor=#ffffff;verticalAlign=top;align=center;perimeter=rhombusPerimeter;outlineConnect=0;outline=none;symbol=none;gwType=parallel;" vertex="1" parent="1G5EOY4C8jy5DTyf7jeD-3">
          <mxGeometry x="1122" y="211" width="50" height="50" as="geometry" />
        </mxCell>
        <mxCell id="1G5EOY4C8jy5DTyf7jeD-35" style="edgeStyle=orthogonalEdgeStyle;rounded=0;orthogonalLoop=1;jettySize=auto;html=1;exitX=1;exitY=0.5;exitDx=0;exitDy=0;entryX=0.5;entryY=1;entryDx=0;entryDy=0;entryPerimeter=0;" edge="1" parent="1G5EOY4C8jy5DTyf7jeD-3" source="1G5EOY4C8jy5DTyf7jeD-28" target="1G5EOY4C8jy5DTyf7jeD-33">
          <mxGeometry relative="1" as="geometry" />
        </mxCell>
        <mxCell id="1G5EOY4C8jy5DTyf7jeD-41" style="edgeStyle=orthogonalEdgeStyle;rounded=0;orthogonalLoop=1;jettySize=auto;html=1;exitX=0.5;exitY=1;exitDx=0;exitDy=0;exitPerimeter=0;entryX=0.5;entryY=0;entryDx=0;entryDy=0;" edge="1" parent="1G5EOY4C8jy5DTyf7jeD-3" source="1G5EOY4C8jy5DTyf7jeD-36" target="1G5EOY4C8jy5DTyf7jeD-38">
          <mxGeometry relative="1" as="geometry" />
        </mxCell>
        <mxCell id="1G5EOY4C8jy5DTyf7jeD-36" value="" style="points=[[0.25,0.25,0],[0.5,0,0],[0.75,0.25,0],[1,0.5,0],[0.75,0.75,0],[0.5,1,0],[0.25,0.75,0],[0,0.5,0]];shape=mxgraph.bpmn.gateway2;html=1;verticalLabelPosition=bottom;labelBackgroundColor=#ffffff;verticalAlign=top;align=center;perimeter=rhombusPerimeter;outlineConnect=0;outline=none;symbol=none;gwType=exclusive;" vertex="1" parent="1G5EOY4C8jy5DTyf7jeD-3">
          <mxGeometry x="1262" y="211" width="50" height="50" as="geometry" />
        </mxCell>
        <mxCell id="1G5EOY4C8jy5DTyf7jeD-37" style="edgeStyle=orthogonalEdgeStyle;rounded=0;orthogonalLoop=1;jettySize=auto;html=1;exitX=1;exitY=0.5;exitDx=0;exitDy=0;exitPerimeter=0;entryX=0;entryY=0.5;entryDx=0;entryDy=0;entryPerimeter=0;" edge="1" parent="1G5EOY4C8jy5DTyf7jeD-3" source="1G5EOY4C8jy5DTyf7jeD-33" target="1G5EOY4C8jy5DTyf7jeD-36">
          <mxGeometry relative="1" as="geometry" />
        </mxCell>
        <mxCell id="1G5EOY4C8jy5DTyf7jeD-38" value="Відхилити кандидатуру" style="rounded=1;whiteSpace=wrap;html=1;" vertex="1" parent="1G5EOY4C8jy5DTyf7jeD-3">
          <mxGeometry x="1227" y="329" width="120" height="60" as="geometry" />
        </mxCell>
        <mxCell id="1G5EOY4C8jy5DTyf7jeD-61" style="edgeStyle=orthogonalEdgeStyle;rounded=0;orthogonalLoop=1;jettySize=auto;html=1;exitX=1;exitY=0.5;exitDx=0;exitDy=0;entryX=0;entryY=0.5;entryDx=0;entryDy=0;" edge="1" parent="1G5EOY4C8jy5DTyf7jeD-3" source="1G5EOY4C8jy5DTyf7jeD-39" target="1G5EOY4C8jy5DTyf7jeD-60">
          <mxGeometry relative="1" as="geometry" />
        </mxCell>
        <mxCell id="1G5EOY4C8jy5DTyf7jeD-39" value="Надіслати пропозицію з умовами праці" style="rounded=1;whiteSpace=wrap;html=1;" vertex="1" parent="1G5EOY4C8jy5DTyf7jeD-3">
          <mxGeometry x="1401" y="206" width="120" height="60" as="geometry" />
        </mxCell>
        <mxCell id="1G5EOY4C8jy5DTyf7jeD-40" style="edgeStyle=orthogonalEdgeStyle;rounded=0;orthogonalLoop=1;jettySize=auto;html=1;exitX=1;exitY=0.5;exitDx=0;exitDy=0;exitPerimeter=0;entryX=0;entryY=0.512;entryDx=0;entryDy=0;entryPerimeter=0;" edge="1" parent="1G5EOY4C8jy5DTyf7jeD-3" source="1G5EOY4C8jy5DTyf7jeD-36" target="1G5EOY4C8jy5DTyf7jeD-39">
          <mxGeometry relative="1" as="geometry" />
        </mxCell>
        <mxCell id="1G5EOY4C8jy5DTyf7jeD-52" style="edgeStyle=orthogonalEdgeStyle;rounded=0;orthogonalLoop=1;jettySize=auto;html=1;exitX=1;exitY=0.5;exitDx=0;exitDy=0;exitPerimeter=0;entryX=0;entryY=0.5;entryDx=0;entryDy=0;" edge="1" parent="1G5EOY4C8jy5DTyf7jeD-3" source="1G5EOY4C8jy5DTyf7jeD-43" target="1G5EOY4C8jy5DTyf7jeD-12">
          <mxGeometry relative="1" as="geometry" />
        </mxCell>
        <mxCell id="1G5EOY4C8jy5DTyf7jeD-43" value="" style="points=[[0.145,0.145,0],[0.5,0,0],[0.855,0.145,0],[1,0.5,0],[0.855,0.855,0],[0.5,1,0],[0.145,0.855,0],[0,0.5,0]];shape=mxgraph.bpmn.event;html=1;verticalLabelPosition=bottom;labelBackgroundColor=#ffffff;verticalAlign=top;align=center;perimeter=ellipsePerimeter;outlineConnect=0;aspect=fixed;outline=standard;symbol=message;" vertex="1" parent="1G5EOY4C8jy5DTyf7jeD-3">
          <mxGeometry x="322" y="210" width="50" height="50" as="geometry" />
        </mxCell>
        <mxCell id="1G5EOY4C8jy5DTyf7jeD-46" style="edgeStyle=orthogonalEdgeStyle;rounded=0;orthogonalLoop=1;jettySize=auto;html=1;exitX=1;exitY=0.5;exitDx=0;exitDy=0;entryX=0;entryY=0.5;entryDx=0;entryDy=0;entryPerimeter=0;" edge="1" parent="1G5EOY4C8jy5DTyf7jeD-3" source="1G5EOY4C8jy5DTyf7jeD-12" target="1G5EOY4C8jy5DTyf7jeD-14">
          <mxGeometry relative="1" as="geometry" />
        </mxCell>
        <mxCell id="1G5EOY4C8jy5DTyf7jeD-60" value="Прийняти кандидата на роботу" style="rounded=1;whiteSpace=wrap;html=1;" vertex="1" parent="1G5EOY4C8jy5DTyf7jeD-3">
          <mxGeometry x="1614" y="205" width="120" height="60" as="geometry" />
        </mxCell>
        <mxCell id="1G5EOY4C8jy5DTyf7jeD-72" value="" style="shape=mxgraph.bpmn.data;labelPosition=center;verticalLabelPosition=bottom;align=center;verticalAlign=top;size=15;html=1;" vertex="1" parent="1G5EOY4C8jy5DTyf7jeD-3">
          <mxGeometry x="766" y="313.5" width="67" height="91" as="geometry" />
        </mxCell>
        <mxCell id="1G5EOY4C8jy5DTyf7jeD-73" value="Розклад&lt;br&gt;співбесіди" style="text;html=1;align=center;verticalAlign=middle;resizable=0;points=[];autosize=1;strokeColor=none;fillColor=none;" vertex="1" parent="1G5EOY4C8jy5DTyf7jeD-3">
          <mxGeometry x="762" y="344.5" width="75" height="41" as="geometry" />
        </mxCell>
        <mxCell id="1G5EOY4C8jy5DTyf7jeD-74" value="" style="endArrow=none;dashed=1;html=1;rounded=0;entryX=0.015;entryY=0.885;entryDx=0;entryDy=0;entryPerimeter=0;" edge="1" parent="1G5EOY4C8jy5DTyf7jeD-3" target="1G5EOY4C8jy5DTyf7jeD-72">
          <mxGeometry width="50" height="50" relative="1" as="geometry">
            <mxPoint x="739" y="394" as="sourcePoint" />
            <mxPoint x="720" y="370" as="targetPoint" />
          </mxGeometry>
        </mxCell>
        <mxCell id="1G5EOY4C8jy5DTyf7jeD-85" value="Резюме влаштовує?" style="text;html=1;align=center;verticalAlign=middle;resizable=0;points=[];autosize=1;strokeColor=none;fillColor=none;" vertex="1" parent="1G5EOY4C8jy5DTyf7jeD-3">
          <mxGeometry x="526.5" y="179" width="131" height="26" as="geometry" />
        </mxCell>
        <mxCell id="1G5EOY4C8jy5DTyf7jeD-44" style="edgeStyle=orthogonalEdgeStyle;rounded=0;orthogonalLoop=1;jettySize=auto;html=1;exitX=0.5;exitY=0;exitDx=0;exitDy=0;dashed=1;" edge="1" parent="1" source="1G5EOY4C8jy5DTyf7jeD-5" target="1G5EOY4C8jy5DTyf7jeD-43">
          <mxGeometry relative="1" as="geometry" />
        </mxCell>
        <mxCell id="1G5EOY4C8jy5DTyf7jeD-49" style="edgeStyle=orthogonalEdgeStyle;rounded=0;orthogonalLoop=1;jettySize=auto;html=1;exitX=0.25;exitY=1;exitDx=0;exitDy=0;entryX=0.5;entryY=0;entryDx=0;entryDy=0;entryPerimeter=0;dashed=1;" edge="1" parent="1" source="1G5EOY4C8jy5DTyf7jeD-17" target="1G5EOY4C8jy5DTyf7jeD-45">
          <mxGeometry relative="1" as="geometry">
            <Array as="points">
              <mxPoint x="74" y="360" />
              <mxPoint x="40" y="360" />
            </Array>
          </mxGeometry>
        </mxCell>
        <mxCell id="1G5EOY4C8jy5DTyf7jeD-53" style="edgeStyle=orthogonalEdgeStyle;rounded=0;orthogonalLoop=1;jettySize=auto;html=1;exitX=0.25;exitY=1;exitDx=0;exitDy=0;entryX=0.25;entryY=0;entryDx=0;entryDy=0;dashed=1;" edge="1" parent="1" source="1G5EOY4C8jy5DTyf7jeD-28" target="1G5EOY4C8jy5DTyf7jeD-29">
          <mxGeometry relative="1" as="geometry" />
        </mxCell>
        <mxCell id="1G5EOY4C8jy5DTyf7jeD-54" style="edgeStyle=orthogonalEdgeStyle;rounded=0;orthogonalLoop=1;jettySize=auto;html=1;exitX=0.75;exitY=0;exitDx=0;exitDy=0;entryX=0.75;entryY=1;entryDx=0;entryDy=0;dashed=1;" edge="1" parent="1" source="1G5EOY4C8jy5DTyf7jeD-29" target="1G5EOY4C8jy5DTyf7jeD-28">
          <mxGeometry relative="1" as="geometry" />
        </mxCell>
        <mxCell id="1G5EOY4C8jy5DTyf7jeD-56" style="edgeStyle=orthogonalEdgeStyle;rounded=0;orthogonalLoop=1;jettySize=auto;html=1;exitX=0.5;exitY=1;exitDx=0;exitDy=0;dashed=1;" edge="1" parent="1" source="1G5EOY4C8jy5DTyf7jeD-38" target="1G5EOY4C8jy5DTyf7jeD-55">
          <mxGeometry relative="1" as="geometry" />
        </mxCell>
        <mxCell id="1G5EOY4C8jy5DTyf7jeD-57" style="edgeStyle=orthogonalEdgeStyle;rounded=0;orthogonalLoop=1;jettySize=auto;html=1;exitX=0.25;exitY=1;exitDx=0;exitDy=0;dashed=1;" edge="1" parent="1" source="1G5EOY4C8jy5DTyf7jeD-39" target="1G5EOY4C8jy5DTyf7jeD-55">
          <mxGeometry relative="1" as="geometry" />
        </mxCell>
        <mxCell id="1G5EOY4C8jy5DTyf7jeD-67" style="edgeStyle=orthogonalEdgeStyle;rounded=0;orthogonalLoop=1;jettySize=auto;html=1;exitX=0.5;exitY=0;exitDx=0;exitDy=0;entryX=0.5;entryY=1;entryDx=0;entryDy=0;dashed=1;" edge="1" parent="1" source="1G5EOY4C8jy5DTyf7jeD-65" target="1G5EOY4C8jy5DTyf7jeD-60">
          <mxGeometry relative="1" as="geometry" />
        </mxCell>
      </root>
    </mxGraphModel>
  </diagram>
</mxfile>
